<svg width="129" height="129" viewBox="0 0 129 129" fill="none" xmlns="http://www.w3.org/2000/svg">
<path fill-rule="evenodd" clip-rule="evenodd" d="M17.4715 11.6204C11.2021 17.8897 11.2021 27.9801 11.2021 48.1607V69.5656C11.2021 89.7463 11.2021 99.8366 17.4715 106.106C23.7408 112.375 33.8311 112.375 54.0118 112.375H75.4167C95.5973 112.375 105.688 112.375 111.957 106.106C118.226 99.8366 118.226 89.7463 118.226 69.5656V48.1607C118.226 27.9801 118.226 17.8897 111.957 11.6204C105.688 5.35107 95.5973 5.35107 75.4167 5.35107H54.0118C33.8311 5.35107 23.7408 5.35107 17.4715 11.6204ZM67.4297 84.1331L67.3898 84.1539V38.9715L67.5072 38.9054C70.4681 37.1922 75.2481 34.6412 79.1625 33.5562C82.0544 32.7545 85.8008 32.3852 89.0984 32.2232C93.4068 32.0116 96.8215 35.5609 96.8215 39.8746V69.0883C96.8215 73.5452 93.1862 77.1378 88.7417 77.4693C86.033 77.6712 83.1091 78.0113 80.7679 78.5834C76.2913 79.6771 70.6939 82.4132 67.4297 84.1331ZM32.607 40.1152V69.0883C32.607 73.5452 36.2423 77.1378 40.6868 77.4693C43.3954 77.6712 46.3193 78.0113 48.6606 78.5834C53.1372 79.6771 58.7346 82.4132 61.9988 84.1331L62.0386 84.1539V39.1223C61.975 39.0918 61.9119 39.0601 61.8492 39.0272C58.5656 37.3037 53.0695 34.6334 48.6606 33.5562C46.2842 32.9755 43.3076 32.6339 40.5651 32.4331C36.1676 32.1111 32.607 35.7059 32.607 40.1152Z" fill="#0D5FF9"/>
</svg>
